<svg version="1.1" xmlns="http://www.w3.org/2000/svg" xmlns:xlink="http://www.w3.org/1999/xlink" width="800px" height="800px" viewBox="0,0,256,256"><g fill="#ebf9f8" fill-rule="nonzero" stroke="none" stroke-width="1" stroke-linecap="butt" stroke-linejoin="miter" stroke-miterlimit="10" stroke-dasharray="" stroke-dashoffset="0" font-family="none" font-weight="none" font-size="none" text-anchor="none" style="mix-blend-mode: normal"><path d="M0,256v-256h256v256z" id="bgRectangle"></path></g><g fill="none" fill-rule="nonzero" stroke="none" stroke-width="none" stroke-linecap="none" stroke-linejoin="miter" stroke-miterlimit="10" stroke-dasharray="" stroke-dashoffset="0" font-family="none" font-weight="none" font-size="none" text-anchor="none" style="mix-blend-mode: normal"><g transform="translate(0.00015,0.00016) scale(10.66667,10.66667)"><path d="M3.35288,8.95043c0.65149,-2.77742 2.82013,-4.94606 5.59755,-5.59756c2.00587,-0.4705 4.09327,-0.4705 6.09917,0c2.7774,0.6515 4.946,2.82014 5.5975,5.59756c0.4705,2.00587 0.4705,4.09327 0,6.09917c-0.6515,2.7774 -2.8201,4.946 -5.5975,5.5975c-2.0059,0.4705 -4.0933,0.4705 -6.09916,0c-2.77743,-0.6515 -4.94607,-2.8201 -5.59756,-5.5975c-0.47051,-2.0059 -0.47051,-4.0933 0,-6.09917z" fill="none" stroke="#33cccc" stroke-width="1.5" stroke-linecap="butt"></path><path d="M3.35288,8.95043c-0.47051,2.00587 -0.47051,4.09327 0,6.09917c0.65149,2.7774 2.82013,4.946 5.59756,5.5975c2.00586,0.4705 4.09326,0.4705 6.09916,0c2.7774,-0.6515 4.946,-2.8201 5.5975,-5.5975c0.4705,-2.0059 0.4705,-4.0933 0,-6.09917c-0.6515,-2.77742 -2.8201,-4.94606 -5.5975,-5.59756" fill="none" stroke="#16bbce" stroke-width="1.5" stroke-linecap="round"></path><path d="M7.84912,8.86907c-0.2929,-0.29289 -0.76777,-0.29289 -1.06066,0c-0.2929,0.2929 -0.2929,0.76777 0,1.06066zM8.35906,10.4397l-0.53033,0.5303c0.14065,0.1407 0.33142,0.2197 0.53033,0.2197c0.19891,0 0.38968,-0.079 0.53033,-0.2197zM10.9699,8.88946c0.2929,-0.29289 0.2929,-0.76777 0,-1.06066c-0.2929,-0.29289 -0.7677,-0.29289 -1.06062,0zM13.0403,9.16954c-0.4142,0 -0.75,0.33579 -0.75,0.75c0,0.41426 0.3358,0.74996 0.75,0.74996zM16.6812,10.6695c0.4143,0 0.75,-0.3357 0.75,-0.74996c0,-0.41421 -0.3357,-0.75 -0.75,-0.75zM7.84912,14.0704c-0.2929,-0.2929 -0.76777,-0.2929 -1.06066,0c-0.2929,0.2929 -0.2929,0.7678 0,1.0607zM8.35906,15.641l-0.53033,0.5304c0.29289,0.2929 0.76777,0.2929 1.06066,0zM10.9699,14.0908c0.2929,-0.2929 0.2929,-0.7677 0,-1.0606c-0.2929,-0.2929 -0.7677,-0.2929 -1.06062,0zM13.0403,14.3709c-0.4142,0 -0.75,0.3358 -0.75,0.75c0,0.4142 0.3358,0.75 0.75,0.75zM16.6812,15.8709c0.4143,0 0.75,-0.3358 0.75,-0.75c0,-0.4142 -0.3357,-0.75 -0.75,-0.75zM6.78846,9.92973l1.04027,1.04027l1.06066,-1.06065l-1.04027,-1.04028zM8.88939,10.97l2.08051,-2.08054l-1.06062,-1.06066l-2.08055,2.08055zM13.0403,10.6695h3.6409v-1.49996h-3.6409zM6.78846,15.1311l1.04027,1.0403l1.06066,-1.0607l-1.04027,-1.0403zM8.88939,16.1714l2.08051,-2.0806l-1.06062,-1.0606l-2.08055,2.0805zM13.0403,15.8709h3.6409v-1.5h-3.6409z" fill="#33cccc" stroke="none" stroke-width="1" stroke-linecap="butt"></path></g></g></svg>